<svg width="24" height="24" fill="none" xmlns="http://www.w3.org/2000/svg"><path d="M11.78 19.416c.594 0 1.083.45 1.146 1.026l.006.126v1.842a1.151 1.151 0 0 1-2.296.125l-.007-.125v-1.842c0-.636.516-1.152 1.152-1.152Zm-5.399-2.235a1.15 1.15 0 0 1 .09 1.527l-.09.1-1.302 1.303a1.152 1.152 0 0 1-1.718-1.527l.09-.1 1.302-1.303a1.15 1.15 0 0 1 1.628 0Zm12.427 0 1.303 1.303a1.15 1.15 0 1 1-1.628 1.627L17.18 18.81a1.15 1.15 0 1 1 1.628-1.628ZM11.781 5.879a5.909 5.909 0 0 1 5.901 5.902 5.909 5.909 0 0 1-5.901 5.902 5.908 5.908 0 0 1-5.902-5.902 5.908 5.908 0 0 1 5.902-5.902Zm10.63 4.75a1.151 1.151 0 1 1 0 2.303h-1.843a1.15 1.15 0 1 1 0-2.303h1.842Zm-19.418 0a1.151 1.151 0 0 1 .126 2.296l-.125.007H1.15a1.15 1.15 0 0 1-.125-2.296l.125-.007h1.842Zm1.985-7.268.1.09 1.303 1.302a1.151 1.151 0 0 1-1.528 1.718l-.1-.09L3.45 5.08A1.15 1.15 0 0 1 4.978 3.36Zm15.133.09c.45.449.45 1.178 0 1.628L18.808 6.38a1.151 1.151 0 1 1-1.628-1.628l1.303-1.303c.449-.449 1.178-.449 1.628 0ZM11.781 0c.636 0 1.151.515 1.151 1.151v1.843a1.152 1.152 0 0 1-2.303 0V1.15C10.63.515 11.145 0 11.781 0Z" fill="#fff"/></svg>