<svg width="18" height="18" fill="none" xmlns="http://www.w3.org/2000/svg"><path opacity=".5" fill-rule="evenodd" clip-rule="evenodd" d="m13 4.765-2.312 2.212a.208.208 0 0 0 .147.356h6.498V1.104a.209.209 0 0 0-.355-.146l-2.173 2.08a8.32 8.32 0 0 0-13.76 3.476l2.386.746A5.825 5.825 0 0 1 13 4.765Zm-5.62 6.03a.208.208 0 0 0-.192-.128H.667v6.148a.208.208 0 0 0 .356.147l2.148-2.021a8.322 8.322 0 0 0 13.785-3.455l-2.387-.746a5.826 5.826 0 0 1-9.578 2.488l2.344-2.206c.06-.06.078-.15.045-.227Z" fill="#fff"/></svg>